<svg xmlns="http://www.w3.org/2000/svg" xmlns:xlink="http://www.w3.org/1999/xlink" viewBox="0 0 35 35">
  <path d="M1.705,32.209 C1.705,32.222 1.706,32.235 1.706,32.248 C1.706,32.630 2.014,32.938 2.392,32.938 C2.392,32.938 32.251,32.938 32.251,32.938 C32.623,32.938 32.927,32.642 32.938,32.273 C32.938,32.264 32.938,32.256 32.938,32.248 C32.938,32.237 32.938,32.227 32.938,32.216 C32.930,31.736 32.749,26.034 29.302,24.319 C28.088,23.715 27.773,23.662 27.337,23.589 C26.837,23.504 26.215,23.400 24.560,22.714 C20.963,21.225 20.839,20.709 20.757,20.367 C20.741,20.304 20.733,20.239 20.733,20.174 C20.733,20.174 20.705,17.140 20.705,17.140 C20.703,16.949 20.766,16.762 20.882,16.610 C20.890,16.600 21.947,15.168 22.282,12.591 C22.314,12.343 22.453,12.122 22.662,11.984 C22.716,11.950 22.773,11.921 22.831,11.899 C23.099,11.369 23.335,9.907 23.261,9.280 C23.209,9.249 23.160,9.212 23.115,9.170 C22.912,8.981 22.813,8.704 22.850,8.429 C22.898,8.070 22.943,7.762 22.983,7.491 C23.093,6.745 23.153,6.334 23.114,5.936 C22.928,4.022 21.045,1.890 17.350,1.714 C14.247,1.892 11.734,4.084 11.554,5.936 C11.513,6.357 11.575,6.797 11.689,7.595 C11.724,7.841 11.763,8.117 11.806,8.432 C11.842,8.708 11.743,8.984 11.539,9.174 C11.494,9.216 11.445,9.252 11.392,9.284 C11.317,9.911 11.550,11.375 11.816,11.906 C11.875,11.928 11.932,11.957 11.985,11.992 C12.195,12.129 12.334,12.351 12.366,12.599 C12.700,15.176 13.757,16.615 13.768,16.630 C13.880,16.780 13.943,16.967 13.941,17.155 C13.941,17.155 13.912,20.205 13.912,20.205 C13.911,20.267 13.904,20.327 13.890,20.388 C13.814,20.722 13.687,21.281 10.082,22.774 C8.405,23.470 7.775,23.556 7.270,23.625 C6.843,23.683 6.534,23.725 5.341,24.319 C1.897,26.033 1.714,31.684 1.705,32.209 ZM32.251,34.654 C32.251,34.654 2.392,34.654 2.392,34.654 C1.086,34.654 0.020,33.606 -0.009,32.307 C-0.010,32.287 -0.011,32.268 -0.011,32.248 C-0.011,31.955 0.041,25.040 4.577,22.783 C5.925,22.111 6.407,22.011 7.039,21.925 C7.467,21.867 7.953,21.800 9.425,21.189 C11.183,20.462 11.916,20.027 12.200,19.830 C12.200,19.830 12.223,17.406 12.223,17.406 C11.870,16.853 11.091,15.443 10.734,13.291 C10.613,13.184 10.493,13.041 10.382,12.848 C9.872,11.966 9.344,9.288 9.935,8.264 C9.965,8.213 9.996,8.165 10.031,8.120 C10.017,8.021 10.004,7.927 9.991,7.837 C9.862,6.938 9.785,6.395 9.846,5.769 C10.131,2.836 13.546,0.193 17.302,-0.002 C17.329,-0.003 17.356,-0.003 17.383,-0.002 C22.129,0.205 24.565,3.134 24.821,5.769 C24.881,6.374 24.801,6.918 24.680,7.741 C24.663,7.857 24.645,7.980 24.626,8.111 C24.832,8.392 24.982,8.847 24.983,9.574 C24.983,9.607 24.930,12.359 23.915,13.275 C23.558,15.431 22.777,16.840 22.423,17.393 C22.423,17.393 22.445,19.787 22.445,19.787 C22.738,19.983 23.478,20.409 25.217,21.129 C26.691,21.741 27.185,21.823 27.621,21.897 C28.245,22.002 28.721,22.113 30.066,22.783 C34.602,25.040 34.654,31.955 34.654,32.248 C34.654,32.258 34.654,32.267 34.654,32.277 C34.640,33.590 33.568,34.654 32.251,34.654 Z"/>
</svg>
