<svg version="1.1" xmlns="http://www.w3.org/2000/svg" xmlns:xlink="http://www.w3.org/1999/xlink" viewBox="5 39.6 90 21.6" enable-background="new 5 39.6 90 21.6" xml:space="preserve">
    <path d="M95,39.6H81.5c-0.2,0-0.5,0.1-0.6,0.3c-1,1-2,2-3,3c-0.9-1-1.8-2-2.7-3c-0.2-0.2-0.4-0.3-0.7-0.3H43.7
	c-0.3,0-0.5,0.1-0.6,0.4l-2.3,5.1c-0.8-1.7-1.6-3.4-2.3-5c-0.2-0.4-0.4-0.5-0.8-0.5H15.5c-0.4,0-0.6,0.1-0.8,0.5L5,61.1h11.6c0.1,0,0.3-0.2,0.4-0.3c0.4-0.9,0.8-1.9,1.2-2.8c0.1-0.1,0.3-0.3,0.5-0.3h2.6c0.3,0,0.5,0.1,0.6,0.4c0.3,0.8,0.7,1.7,1.1,2.5c0.2,0.4,0.4,0.6,0.9,0.6c16.7,0,33.3,0,50,0c0.7,0,1.1-0.2,1.5-0.7c0.8-0.9,1.7-1.9,2.6-2.8c1,1,1.9,2.1,2.8,3.1c0.2,0.2,0.4,0.3,0.7,0.3h13.1c-3.4-3.6-6.8-7.2-10.1-10.7C87.9,46.9,95,39.6,95,39.6z M52,58.1h-3.9V46.3c0,0-3.8,7.8-5.5,11.4c-0.1,0.3-0.3,0.4-0.6,0.4h-2.5c-0.3,0-0.5-0.1-0.6-0.4l-5.5-11.5v11.9H26c-0.4,0-0.6-0.1-0.7-0.5c-0.4-0.9-0.8-1.8-1.2-2.7c-0.1-0.2-0.2-0.3-0.5-0.3c-2.4,0-4.9,0-7.3,0c-0.3,0-0.4,0.1-0.5,0.3c-0.4,0.9-0.8,1.9-1.2,2.8c-0.1,0.1-0.3,0.4-0.4,0.4c-1.3,0-2.6,0-4,0l6.7-15c0.1-0.3,0.3-0.4,0.7-0.4c1.6,0,3.2,0,4.8,0c0.4,0,0.5,0.1,0.7,0.4L29.5,57V42.7h5.9c0.3,0,0.5,0.1,0.6,0.4l4.9,10l4.5-10c0.1-0.1,0.2-0.4,0.4-0.4H52V58.1z M87.4,58.1h-4.2c-0.6,0-0.9-0.2-1.3-0.6c0,0-4.1-4.5-4.2-4.6c0,0-3.7,3.8-4.7,4.9c-0.1,0.1-0.4,0.3-0.6,0.3h-17V42.7h17.2c0.4,0,0.7,0.1,0.9,0.4c1.3,1.5,2.7,3.1,4.1,4.6l4.7-4.8c0.1-0.1,0.3-0.2,0.5-0.2c1.6,0,3.1,0,4.8,0c-2.6,2.6-5,5.2-7.5,7.7C82.6,53,85,55.6,87.4,58.1z M17.4,51.4h5.3L20,45.3L17.4,51.4z M68.4,43.4c0,0.8,0,2.5,0,2.5h-9.2v2.7h9.2v3.2h-9.2v3.1h9.2v2.3c2.3-2.3,4.5-4.6,6.7-6.8C72.9,48.1,70.7,45.7,68.4,43.4C68.4,43.4,68.5,43.4,68.4,43.4z" />
</svg>
