<svg xmlns="http://www.w3.org/2000/svg" xmlns:xlink="http://www.w3.org/1999/xlink" preserveAspectRatio="xMidYMid" width="20.46" height="18.156" viewBox="0 0 20.46 18.156">
  <path d="M17.524,13.909 L6.574,13.909 L3.161,2.665 L-0.000,1.328 L-0.000,0.005 C0.013,0.010 0.027,0.012 0.041,0.018 L4.148,1.755 L4.912,4.273 C4.938,4.269 4.965,4.267 4.992,4.267 L20.464,4.267 L17.524,13.909 ZM7.465,12.683 L16.635,12.683 L18.827,5.493 L5.282,5.493 L7.465,12.683 ZM9.277,15.308 C10.049,15.308 10.677,15.945 10.677,16.729 C10.677,17.513 10.049,18.150 9.277,18.150 C8.506,18.150 7.878,17.513 7.878,16.729 C7.878,15.945 8.506,15.308 9.277,15.308 ZM14.454,15.308 C15.226,15.308 15.854,15.945 15.854,16.729 C15.854,17.513 15.226,18.150 14.454,18.150 C13.682,18.150 13.055,17.513 13.055,16.729 C13.055,15.945 13.682,15.308 14.454,15.308 Z" />
</svg>
