<svg xmlns="http://www.w3.org/2000/svg" xmlns:xlink="http://www.w3.org/1999/xlink" viewBox="0 0 34 30">
  <path d="M32.000,30.000 C32.000,30.000 6.000,30.000 6.000,30.000 C4.895,30.000 4.000,29.105 4.000,28.000 C4.000,28.000 4.000,18.200 4.000,18.200 C4.000,18.200 -0.000,15.000 -0.000,15.000 C-0.000,15.000 4.000,11.800 4.000,11.800 C4.000,11.800 4.000,2.000 4.000,2.000 C4.000,0.895 4.895,0.000 6.000,0.000 C6.000,0.000 32.000,0.000 32.000,0.000 C33.105,0.000 34.000,0.895 34.000,2.000 C34.000,2.000 34.000,28.000 34.000,28.000 C34.000,29.105 33.105,30.000 32.000,30.000 Z"/>
</svg>
