<svg xmlns="http://www.w3.org/2000/svg" xmlns:xlink="http://www.w3.org/1999/xlink" viewBox="0 0 35 35">
  <path d="M26.170,15.499 C26.170,15.499 8.132,15.499 8.132,15.499 C7.658,15.499 7.275,15.881 7.275,16.352 C7.275,16.822 7.658,17.204 8.132,17.204 C8.132,17.204 26.170,17.204 26.170,17.204 C26.644,17.204 27.028,16.822 27.028,16.352 C27.028,15.881 26.644,15.499 26.170,15.499 ZM26.170,8.689 C26.170,8.689 8.132,8.689 8.132,8.689 C7.658,8.689 7.275,9.070 7.275,9.541 C7.275,10.012 7.658,10.393 8.132,10.393 C8.132,10.393 26.170,10.393 26.170,10.393 C26.644,10.393 27.028,10.012 27.028,9.541 C27.028,9.070 26.644,8.689 26.170,8.689 ZM32.944,20.694 C32.944,23.076 30.994,25.014 28.597,25.014 C28.597,25.014 24.600,25.014 24.600,25.014 C24.600,25.014 24.600,31.181 24.600,31.181 C24.600,31.181 16.577,25.014 16.577,25.014 C16.577,25.014 6.051,25.014 6.051,25.014 C3.654,25.014 1.704,23.076 1.704,20.694 C1.704,20.694 1.704,6.027 1.704,6.027 C1.704,3.644 3.654,1.705 6.051,1.705 C6.051,1.705 28.597,1.705 28.597,1.705 C30.994,1.705 32.944,3.644 32.944,6.027 C32.944,6.027 32.944,20.694 32.944,20.694 ZM28.597,0.001 C28.597,0.001 6.051,0.001 6.051,0.001 C2.709,0.001 -0.010,2.704 -0.010,6.027 C-0.010,6.027 -0.010,20.694 -0.010,20.694 C-0.010,24.016 2.709,26.719 6.051,26.719 C6.051,26.719 15.991,26.719 15.991,26.719 C15.991,26.719 26.314,34.654 26.314,34.654 C26.314,34.654 26.314,26.719 26.314,26.719 C26.314,26.719 28.597,26.719 28.597,26.719 C31.939,26.719 34.658,24.016 34.658,20.694 C34.658,20.694 34.658,6.027 34.658,6.027 C34.658,2.704 31.939,0.001 28.597,0.001 Z"/>
</svg>
