<svg version="1.1" xmlns="http://www.w3.org/2000/svg" xmlns:xlink="http://www.w3.org/1999/xlink" viewBox="4.4 43.8 90.1 15.4" enable-background="new 4.4 43.8 90.1 15.4" xml:space="preserve">
    <path d="M8.6,44.2H4.4v14.4h4.1c2.2,0,3.8-0.5,5.2-1.7c1.6-1.4,2.6-3.4,2.6-5.5C16.3,47.2,13.1,44.2,8.6,44.2z M11.8,55c-0.9,0.8-2,1.1-3.9,1.1H7.2v-9.5H8c1.8,0,2.9,0.3,3.9,1.2s1.6,2.2,1.6,3.6C13.4,52.8,12.8,54.1,11.8,55z M17.6,58.6h2.8V44.2h-2.8V58.6z M27.3,49.7c-1.7-0.6-2.2-1-2.2-1.8c0-0.9,0.9-1.6,2.1-1.6c0.8,0,1.5,0.3,2.3,1.2l1.5-1.9c-1.2-1.1-2.7-1.6-4.2-1.6c-2.6,0-4.5,1.8-4.5,4.1c0,2,0.9,3,3.6,3.9c1.1,0.4,1.7,0.6,1.9,0.8c0.6,0.4,0.8,0.9,0.8,1.5c0,1.2-0.9,2-2.2,2c-1.3,0-2.4-0.7-3.1-1.9l-1.8,1.7c1.3,1.9,2.9,2.7,5,2.7c2.9,0,5-1.9,5-4.7C31.5,51.9,30.5,50.9,27.3,49.7z M32.3,51.4c0,4.2,3.3,7.5,7.6,7.5c1.2,0,2.3-0.2,3.5-0.8v-3.3c-1.1,1.1-2.1,1.6-3.4,1.6c-2.8,0-4.8-2.1-4.8-5c0-2.8,2.1-4.9,4.7-4.9c1.3,0,2.4,0.5,3.5,1.6v-3.3c-1.2-0.6-2.3-0.9-3.5-0.9C35.8,43.9,32.3,47.2,32.3,51.4z M65.8,53.9L62,44.2h-3.1L65,59h1.5l6.2-14.8h-3.1L65.8,53.9z M74,58.6h8v-2.4h-5.2v-3.9h5v-2.4h-5v-3.2H82v-2.4h-8V58.6z M89.9,52.5c2.1-0.4,3.3-1.9,3.3-4.1c0-2.7-1.9-4.3-5.1-4.3h-4.2v14.4h2.8v-5.8h0.4l3.9,5.8h3.5L89.9,52.5z M87.5,50.8h-0.8v-4.4h0.9c1.8,0,2.7,0.7,2.7,2.1C90.3,50,89.3,50.8,87.5,50.8z M52.1,43.8c-4.2,0-7.7,3.4-7.7,7.7c0,4.2,3.4,7.7,7.7,7.7c4.2,0,7.7-3.4,7.7-7.7S56.3,43.8,52.1,43.8z M52.2,56.9c-3,0-5.4-2.4-5.4-5.4c0-3,2.4-5.4,5.4-5.4c3,0,5.4,2.4,5.4,5.4C57.6,54.5,55.2,56.9,52.2,56.9z" />
</svg>
