<svg xmlns="http://www.w3.org/2000/svg" xmlns:xlink="http://www.w3.org/1999/xlink" preserveAspectRatio="xMidYMid" width="42" height="42" viewBox="0 0 42 42">
  <path d="M21.214,-0.015 C9.493,-0.015 -0.009,9.369 -0.009,20.946 C-0.009,32.522 9.493,41.906 21.214,41.906 C32.936,41.906 42.437,32.522 42.437,20.946 C42.437,9.369 32.936,-0.015 21.214,-0.015 ZM33.985,11.630 C33.985,11.630 21.318,21.225 21.318,21.225 C21.318,21.225 8.671,11.630 8.671,11.630 C8.671,11.630 33.985,11.630 33.985,11.630 ZM8.584,14.258 C8.584,14.258 16.035,19.911 16.035,19.911 C16.035,19.911 8.584,27.270 8.584,27.270 C8.584,27.270 8.584,14.258 8.584,14.258 C8.584,14.258 8.584,14.258 8.584,14.258 ZM8.615,30.261 C8.615,30.261 17.765,21.224 17.765,21.224 C17.765,21.224 21.317,23.918 21.317,23.918 C21.317,23.918 24.863,21.232 24.863,21.232 C24.863,21.232 34.005,30.261 34.005,30.261 C34.005,30.261 8.615,30.261 8.615,30.261 C8.615,30.261 8.615,30.261 8.615,30.261 ZM34.051,27.285 C34.051,27.285 26.594,19.921 26.594,19.921 C26.594,19.921 34.051,14.272 34.051,14.272 C34.051,14.272 34.051,27.285 34.051,27.285 Z"/>
</svg>
