<svg xmlns="http://www.w3.org/2000/svg" xmlns:xlink="http://www.w3.org/1999/xlink" preserveAspectRatio="xMidYMid" width="40" height="35" viewBox="0 0 40 35">
  <path d="M32.630,19.057 C32.630,19.057 19.445,32.340 19.445,32.340 C19.445,32.340 6.257,19.052 6.257,19.052 C3.457,16.273 1.915,13.015 1.915,9.878 C1.915,5.036 5.024,1.908 9.834,1.908 C14.095,1.908 15.651,3.725 18.229,6.736 C18.229,6.736 18.714,7.300 18.714,7.300 C18.896,7.513 19.163,7.635 19.445,7.635 C19.726,7.635 19.993,7.513 20.176,7.300 C20.176,7.300 20.664,6.731 20.664,6.731 C23.241,3.723 24.796,1.908 29.055,1.908 C33.867,1.908 36.975,5.036 36.975,9.878 C36.975,13.015 35.434,16.273 32.630,19.057 ZM29.055,-0.003 C24.068,-0.003 21.962,2.273 19.445,5.206 C16.928,2.273 14.820,-0.003 9.834,-0.003 C3.947,-0.003 -0.009,3.968 -0.009,9.878 C-0.009,13.525 1.733,17.263 4.890,20.398 C4.890,20.398 18.759,34.371 18.759,34.371 C18.940,34.553 19.187,34.656 19.445,34.656 C19.702,34.656 19.949,34.553 20.130,34.371 C20.130,34.371 33.996,20.403 33.996,20.403 C37.158,17.263 38.900,13.526 38.900,9.878 C38.900,3.968 34.944,-0.003 29.055,-0.003 Z" id="path-1"/>
</svg>
