<svg xmlns="http://www.w3.org/2000/svg" xmlns:xlink="http://www.w3.org/1999/xlink" preserveAspectRatio="xMidYMid" width="33" height="35" viewBox="0 0 33 35">
  <path d="M32.185,15.925 C32.185,15.925 16.816,0.254 16.816,0.254 C16.658,0.093 16.458,0.007 16.215,0.003 C15.989,0.004 15.773,0.096 15.616,0.258 C15.616,0.258 7.793,8.353 7.793,8.353 C7.793,8.353 7.793,2.815 7.793,2.815 C7.793,2.354 7.419,1.981 6.957,1.981 C6.495,1.981 6.121,2.354 6.121,2.815 C6.121,2.815 6.121,10.084 6.121,10.084 C6.121,10.084 0.212,16.198 0.212,16.198 C-0.108,16.529 -0.098,17.057 0.235,17.376 C0.397,17.532 0.606,17.610 0.815,17.610 C1.034,17.610 1.253,17.524 1.417,17.354 C1.417,17.354 16.223,2.034 16.223,2.034 C16.223,2.034 30.989,17.091 30.989,17.091 C31.312,17.420 31.842,17.426 32.172,17.104 C32.502,16.782 32.508,16.254 32.185,15.925 ZM27.148,32.986 C27.148,32.986 20.791,32.986 20.791,32.986 C20.791,32.986 20.791,22.321 20.791,22.321 C20.791,21.861 20.417,21.488 19.955,21.488 C19.955,21.488 12.532,21.488 12.532,21.488 C12.070,21.488 11.696,21.861 11.696,22.321 C11.696,22.321 11.696,32.986 11.696,32.986 C11.696,32.986 5.338,32.986 5.338,32.986 C5.338,32.986 5.338,17.190 5.338,17.190 C5.338,17.190 16.274,6.014 16.274,6.014 C16.274,6.014 27.148,17.189 27.148,17.189 C27.148,17.189 27.148,32.986 27.148,32.986 ZM16.876,4.237 C16.719,4.076 16.503,3.984 16.277,3.984 C16.277,3.984 16.276,3.984 16.276,3.984 C16.050,3.984 15.835,4.075 15.677,4.236 C15.677,4.236 3.903,16.269 3.903,16.269 C3.751,16.425 3.666,16.634 3.666,16.851 C3.666,16.851 3.666,33.820 3.666,33.820 C3.666,34.281 4.040,34.654 4.502,34.654 C4.502,34.654 12.532,34.654 12.532,34.654 C12.994,34.654 13.368,34.281 13.368,33.820 C13.368,33.820 13.368,23.155 13.368,23.155 C13.368,23.155 19.118,23.155 19.118,23.155 C19.118,23.155 19.118,33.820 19.118,33.820 C19.118,34.281 19.493,34.654 19.955,34.654 C19.955,34.654 27.985,34.654 27.985,34.654 C28.447,34.654 28.821,34.281 28.821,33.820 C28.821,33.820 28.821,16.851 28.821,16.851 C28.821,16.634 28.736,16.426 28.585,16.270 C28.585,16.270 16.876,4.237 16.876,4.237 Z"/>
</svg>
