<svg xmlns="http://www.w3.org/2000/svg" xmlns:xlink="http://www.w3.org/1999/xlink" viewBox="0 0 45 32">
  <path d="M3.291,1.819 C3.291,1.819 41.213,1.819 41.213,1.819 C41.213,1.819 22.491,14.899 22.491,14.899 C22.491,14.899 3.291,1.819 3.291,1.819 ZM29.204,16.990 C28.832,16.657 28.263,16.692 27.933,17.068 C27.604,17.445 27.638,18.019 28.011,18.352 C28.011,18.352 41.250,30.182 41.250,30.182 C41.250,30.182 3.356,30.182 3.356,30.182 C3.356,30.182 16.595,18.352 16.595,18.352 C16.968,18.019 17.003,17.445 16.673,17.068 C16.344,16.692 15.775,16.657 15.402,16.990 C15.402,16.990 1.799,29.144 1.799,29.144 C1.799,29.144 1.799,2.997 1.799,2.997 C1.799,2.997 21.994,16.754 21.994,16.754 C22.146,16.857 22.322,16.910 22.498,16.910 C22.677,16.910 22.856,16.855 23.010,16.748 C23.010,16.748 43.196,2.645 43.196,2.645 C43.196,2.645 43.196,29.492 43.196,29.492 C43.196,29.492 29.204,16.990 29.204,16.990 ZM42.883,-0.001 C42.883,-0.001 2.112,-0.001 2.112,-0.001 C0.946,-0.001 -0.002,0.958 -0.002,2.136 C-0.002,2.136 -0.002,29.866 -0.002,29.866 C-0.002,30.409 0.206,30.900 0.538,31.277 C0.564,31.321 0.593,31.364 0.628,31.404 C0.707,31.495 0.802,31.563 0.903,31.613 C1.246,31.856 1.662,32.001 2.112,32.001 C2.112,32.001 42.883,32.001 42.883,32.001 C44.049,32.001 44.997,31.043 44.997,29.866 C44.997,29.866 44.997,2.136 44.997,2.136 C44.997,0.958 44.049,-0.001 42.883,-0.001 Z"/>
</svg>
