<svg xmlns="http://www.w3.org/2000/svg" xmlns:xlink="http://www.w3.org/1999/xlink" viewBox="0 0 19 19">
  <path d="M13.678,13.340 C13.421,13.304 13.183,13.483 13.147,13.740 C13.111,13.997 13.290,14.235 13.546,14.272 C16.835,14.738 18.060,15.598 18.060,16.030 C18.060,16.738 15.120,18.059 9.499,18.059 C3.879,18.059 0.939,16.738 0.939,16.030 C0.939,15.601 2.152,14.746 5.409,14.278 C5.666,14.241 5.844,14.002 5.807,13.745 C5.770,13.488 5.535,13.311 5.276,13.347 C3.306,13.630 0.000,14.356 0.000,16.030 C0.000,17.980 4.779,18.999 9.499,18.999 C14.220,18.999 18.999,17.980 18.999,16.030 C18.999,14.283 15.277,13.567 13.678,13.340 ZM9.499,0.942 C12.115,0.942 14.243,3.074 14.243,5.695 C14.243,9.311 10.610,13.376 9.496,14.538 C8.378,13.396 4.757,9.408 4.757,5.695 C4.757,3.074 6.884,0.942 9.499,0.942 ZM9.179,15.547 C9.179,15.547 9.503,15.851 9.503,15.851 C9.503,15.851 9.824,15.543 9.824,15.543 C10.042,15.333 15.181,10.348 15.181,5.695 C15.181,2.555 12.632,0.001 9.499,0.001 C6.367,0.001 3.818,2.555 3.818,5.695 C3.818,10.473 8.960,15.342 9.179,15.547 ZM7.726,5.516 C7.726,4.536 8.522,3.739 9.499,3.739 C10.477,3.739 11.273,4.536 11.273,5.516 C11.273,6.496 10.477,7.293 9.499,7.293 C8.522,7.293 7.726,6.496 7.726,5.516 ZM12.211,5.516 C12.211,4.018 10.995,2.799 9.499,2.799 C8.004,2.799 6.788,4.018 6.788,5.516 C6.788,7.014 8.004,8.234 9.499,8.234 C10.995,8.234 12.211,7.014 12.211,5.516 Z"/>
</svg>
