<svg version="1.1" xmlns="http://www.w3.org/2000/svg" xmlns:xlink="http://www.w3.org/1999/xlink" viewBox="4.2 43 90.6 15" enable-background="new 4.2 43 90.6 15" xml:space="preserve">
<path d="M39.9,48.7h1.6l0.4-2.8h-1.5l0.3-1.8h-3.1c-0.1,0.1-1.8,10-1.8,11.2c0,1.8,1,2.6,2.4,2.6
	c1.1,0,2-0.3,2.3-0.4l0.4-2.6c-0.2,0-0.5,0.1-0.8,0.1c-1.1,0-1.2-0.6-1.1-1L39.9,48.7z M50.9,52.7c0,0,0.4-2,0.4-2.8
	c0-2-1-4.4-4.4-4.4c-3.1,0-5.4,3.3-5.4,7c0,4.3,2.9,5.3,5.3,5.3c2.2,0,3.2-0.5,3.2-0.5l0.5-2.9c0,0-1.7,0.7-3.3,0.7
	c-3.3,0-2.7-2.4-2.7-2.4S50.9,52.7,50.9,52.7z M46.9,48.3c1.7,0,1.4,1.9,1.4,2.1H45C45,50.1,45.3,48.3,46.9,48.3z M61.3,51.5c0-3.6,1.9-5.5,4-5.5c1.6,0,2.8,0.9,2.8,0.9l0.5-3.2c0,0-1.9-0.7-3.4-0.7c-3.5,0-7,3-7,8.7c0,3.8,1.9,6.3,5.5,6.3c1,0,2.7-0.4,2.7-0.4l0.5-3.3c0,0-1.5,0.7-2.5,0.7C62.2,54.9,61.3,53.2,61.3,51.5z M23.8,45.6c-2.1,0-3.7,0.7-3.7,0.7l-0.4,2.6c0,0,1.3-0.5,3.3-0.5c1.1,0,2,0.1,2,1c0,0.6-0.1,0.8-0.1,0.8s-0.9-0.1-1.3-0.1c-2.6,0-5.4,1.1-5.4,4.5c0,2.7,1.8,3.3,3,3.3c2.2,0,3.1-1.4,3.1-1.4l-0.1,1.2h2.7l1.2-8.3C28,45.7,24.8,45.6,23.8,45.6z M22.2,55.3c-1,0-1.2-0.7-1.2-1.1c0-0.8,0.5-1.8,2.7-1.8c0.5,0,0.6,0.1,0.7,0.1C24.5,52.9,24.1,55.3,22.2,55.3z M33.5,48.4c0.4,0,2.1,0.1,2.1,0.1l0.4-2.7c0,0-1.1-0.2-2.8-0.2c-2.3,0-4.6,0.9-4.6,4c0,3.5,3.8,3.1,3.8,4.6c0,1-1.1,1.1-1.9,1.1c-1.4,0-2.7-0.5-2.7-0.5l-0.4,2.6c0.1,0,0.9,0.4,3.4,0.4c0.7,0,4.6,0.2,4.6-3.9c0-3.8-3.7-3-3.7-4.5C31.8,48.6,32.4,48.4,33.5,48.4z M91.7,43.2l-0.7,4c0,0-1.2-1.6-3-1.6c-2.8,0-5.1,3.3-5.1,7.2c0,2.5,1.2,4.9,3.8,4.9c1.8,0,2.9-1.3,2.9-1.3l-0.1,1.1h3l2.3-14.4L91.7,43.2z M87.8,54.8c-1.1,0-1.6-0.9-1.6-2.4c0-2.3,1.1-3.9,2.4-3.9c1.1,0,1.7,0.7,1.7,2.5C90.3,52.7,89.5,54.8,87.8,54.8z M14.3,43.2l-3,8.8l-0.2-8.8H6.7L4.2,57.6h3L9,46.7l0.3,10.9h2.1l3.9-10.9l-1.7,10.9h3.1l2.4-14.4C19.1,43.2,14.3,43.2,14.3,43.2z M58.1,45.7c-1.4,0-2.4,1.9-2.4,1.9l0.3-1.7h-2.9l-1.9,11.7h3.1c0.9-5,1.1-9.1,3.2-8.3c0.4-1.9,0.7-2.7,1.1-3.5C58.7,45.8,58.5,45.7,58.1,45.7z M73.4,45.6c-2.1,0-3.7,0.7-3.7,0.7l-0.4,2.6c0,0,1.3-0.5,3.3-0.5c1.1,0,2,0.1,2,1c0,0.6-0.1,0.8-0.1,0.8s-0.9-0.1-1.3-0.1c-2.6,0-5.4,1.1-5.4,4.5c0,2.7,1.8,3.3,3,3.3c2.2,0,3.1-1.4,3.1-1.4l-0.1,1.2h2.7l1.2-8.3C77.6,45.7,74.5,45.6,73.4,45.6z M71.9,55.3c-1,0-1.2-0.7-1.2-1.1c0-0.8,0.5-1.8,2.7-1.8c0.5,0,0.6,0.1,0.7,0.1C74.1,52.9,73.7,55.3,71.9,55.3z M84.4,45.8c0,0-0.2,0-0.6,0c-1.4,0-2.4,1.9-2.4,1.9l0.3-1.7h-2.9l-1.9,11.7H80c0.9-5,1.1-9.1,3.2-8.3C83.6,47.3,84,46.6,84.4,45.8z"/>
</svg>
