<svg version="1.1" xmlns="http://www.w3.org/2000/svg" xmlns:xlink="http://www.w3.org/1999/xlink" viewBox="5 39.6 90 23.8" enable-background="new 5 39.6 90 23.8" xml:space="preserve">
<path d="M54.2,43.7c-0.6,0-3.2,0-3.2,0c-0.6,0-1.3,0.4-1.7,1c0,0-3.9,6.3-4.3,6.9c-0.2,0.3-0.4,0.1-0.5,0
	c0-0.2-1.2-6.8-1.2-6.8c-0.1-0.5-0.7-1-1.5-1h-2.4c-0.6,0-0.9,0.4-0.8,1c0,0,1.8,9.9,2.2,12.2c0.2,1.3,0,1.5,0,1.5l-2.4,3.9c-0.3,0.5-0.2,1,0.4,1h2.8c0.6,0,1.3-0.4,1.7-1l10.8-17.2C54.1,45.2,55.1,43.7,54.2,43.7z M22.8,42.1c-0.3-0.6-0.8-1.1-1.5-1.5s-1.4-0.7-2.3-0.8c-0.9-0.2-2-0.2-3.2-0.2h-5.6c-0.6,0-1.2,0.4-1.3,1L5,56.1c-0.1,0.5,0.2,1,0.8,1h2.7c0.6,0,1.2-0.4,1.3-1l0.9-3.8c0.1-0.5,0.7-1,1.3-1h0.8c3.3,0,5.9-0.6,7.7-1.9c1.8-1.3,2.8-3,2.8-5C23.3,43.5,23.1,42.7,22.8,42.1z M16.9,47.2C16.1,47.8,15,48,13.5,48h-0.7c-0.6,0-1-0.4-0.8-1l0.8-3.3c0.1-0.5,0.7-1,1.3-1H15c1,0,1.8,0.2,2.3,0.5s0.8,0.8,0.8,1.5C18.2,45.9,17.8,46.7,16.9,47.2z M35.8,44.3c-1-0.5-2.6-0.8-4.8-0.8c-1.1,0-2.2,0.1-3.3,0.2c-0.8,0.1-0.9,0.1-1.4,0.2c-1,0.2-1.2,1.2-1.2,1.2l-0.3,1.3c-0.2,0.8,0.3,0.8,0.5,0.7c0.4-0.1,0.7-0.3,1.6-0.5s1.8-0.3,2.5-0.3c1.1,0,1.9,0.1,2.4,0.3c0.5,0.2,0.8,0.6,0.8,1.2c0,0.1,0,0.3,0,0.4c0,0.1-0.1,0.2-0.4,0.2c-1.5,0.1-2.6,0.2-4,0.4c-1.3,0.2-2.5,0.5-3.4,0.9c-1,0.4-1.8,1-2.3,1.7s-0.8,1.6-0.8,2.7c0,1,0.4,1.8,1.1,2.4c0.7,0.6,1.7,0.9,2.8,0.9c0.7,0,1.3-0.1,1.7-0.1c0.4-0.1,0.8-0.2,1.3-0.4c0.3-0.1,0.7-0.3,1.1-0.6c0.4-0.2,0.7-0.4,1-0.6l0,0l-0.1,0.4l0,0l0,0c-0.1,0.5,0.2,0.9,0.7,1l0,0l0,0l0,0c0.3,0,1.5,0,2.1,0H34l0,0c0.5-0.1,1-0.5,1.2-1l2-8c0-0.2,0.1-0.4,0.1-0.7s0.1-0.5,0-0.6C37.3,45.7,36.8,44.9,35.8,44.3z M32,51.2c0,0.2-0.4,1.5-0.5,2.2c0,0.2-0.3,0.5-0.4,0.5c-0.3,0.2-0.7,0.4-1.1,0.5c-0.5,0.2-1,0.3-1.4,0.3c-0.7,0-1.2-0.1-1.5-0.3s-0.5-0.5-0.5-1s0.1-0.9,0.4-1.2s0.7-0.6,1.2-0.7c0.5-0.2,1.1-0.3,1.8-0.4c0.6-0.1,1.8-0.2,2-0.2C32,50.9,32.1,50.8,32,51.2z M84.8,44.4c-1-0.5-2.6-0.8-4.8-0.8c-1.1,0-2.2,0.1-3.3,0.2c-0.8,0.1-0.9,0.1-1.4,0.2c-1,0.2-1.2,1.2-1.2,1.2l-0.3,1.3c-0.2,0.8,0.3,0.8,0.5,0.7c0.4-0.1,0.7-0.3,1.6-0.4c0.9-0.2,1.8-0.3,2.5-0.3c1.1,0,1.9,0.1,2.4,0.3s0.8,0.6,0.8,1.2c0,0.1,0,0.3,0,0.4c0,0.1-0.1,0.2-0.4,0.2c-1.5,0.1-2.7,0.2-4,0.4s-2.5,0.5-3.4,0.9c-1,0.4-1.8,1-2.3,1.7s-0.8,1.6-0.8,2.7c0,1,0.4,1.8,1.1,2.4c0.7,0.6,1.7,0.9,2.8,0.9c0.7,0,1.3-0.1,1.7-0.1c0.4-0.1,0.8-0.2,1.3-0.4c0.3-0.1,0.7-0.3,1.1-0.6c0.4-0.2,0.7-0.4,1-0.6l0,0l-0.1,0.4l0,0l0,0c-0.1,0.5,0.2,0.9,0.7,1l0,0l0,0l0,0c0.3,0,1.5,0,2.1,0h0.4l0,0c0.5-0.1,1-0.5,1.2-1l2-8c0-0.2,0.1-0.4,0.1-0.7s0.1-0.5,0-0.6C86.4,45.7,85.9,44.9,84.8,44.4z M81,51.3c0,0.2-0.4,1.5-0.5,2.2c0,0.2-0.3,0.5-0.4,0.5c-0.3,0.2-0.7,0.4-1.1,0.5c-0.5,0.2-1,0.3-1.4,0.3c-0.7,0-1.2-0.1-1.5-0.3s-0.5-0.5-0.5-1s0.1-0.9,0.4-1.2s0.7-0.6,1.2-0.7c0.5-0.2,1.1-0.3,1.8-0.4c0.6-0.1,1.8-0.2,2-0.2C81,50.9,81.1,50.9,81,51.3z M71.8,42.2c-0.3-0.6-0.8-1.1-1.5-1.5S68.9,40,68,39.9s-2-0.2-3.2-0.2h-5.7c-0.6,0-1.2,0.4-1.3,1L54,56.3c-0.1,0.5,0.2,1,0.8,1h2.7c0.6,0,1.2-0.4,1.3-1l0.9-3.8c0.1-0.5,0.7-1,1.3-1h0.8c3.3,0,5.9-0.6,7.7-1.9c1.8-1.3,2.8-3,2.8-5.1C72.3,43.6,72.2,42.8,71.8,42.2z M66,47.3c-0.8,0.6-1.9,0.8-3.4,0.8h-0.7c-0.6,0-1-0.4-0.8-1l0.8-3.3c0.1-0.5,0.7-1,1.3-1h0.9c1,0,1.8,0.2,2.3,0.5s0.8,0.8,0.8,1.5C67.2,45.9,66.8,46.7,66,47.3z M94.2,39.8h-2.4l0,0l0,0c-0.6,0-1.1,0.4-1.3,0.9c0,0,0,0,0,0.1c0,0-0.1,0.2-0.2,0.7L87,55.6c-0.1,0.3-0.1,0.5-0.1,0.6l0,0c-0.1,0.5,0.2,0.9,0.7,1l0,0h2.5c0.5,0,1.1-0.4,1.3-0.9c0,0,0,0,0-0.1L95,40.7l0,0C95.1,40.2,94.7,39.8,94.2,39.8z"/>
</svg>
