<svg xmlns="http://www.w3.org/2000/svg" xmlns:xlink="http://www.w3.org/1999/xlink" viewBox="0 0 35 35">
  <path d="M1.730,4.439 C1.730,2.938 3.167,1.717 4.934,1.717 C4.934,1.717 29.753,1.717 29.753,1.717 C30.628,1.717 31.447,2.013 32.057,2.551 C32.637,3.062 32.956,3.732 32.955,4.439 C32.955,4.439 32.956,9.885 32.956,9.885 C32.956,9.885 26.954,9.885 26.954,9.885 C26.954,9.885 26.953,8.196 26.953,8.196 C26.954,7.391 26.604,6.638 25.968,6.076 C25.362,5.543 24.567,5.248 23.727,5.248 C23.727,5.248 10.960,5.248 10.960,5.248 C9.181,5.248 7.733,6.569 7.733,8.194 C7.733,8.194 7.733,9.886 7.733,9.886 C7.733,9.886 1.730,9.886 1.730,9.886 C1.730,9.886 1.730,4.439 1.730,4.439 ZM0.872,11.601 C0.872,11.601 8.591,11.601 8.591,11.601 C8.819,11.601 9.037,11.511 9.198,11.351 C9.359,11.190 9.449,10.971 9.449,10.744 C9.449,10.744 9.449,8.194 9.449,8.194 C9.449,7.527 10.141,6.964 10.960,6.964 C10.960,6.964 23.727,6.964 23.727,6.964 C24.148,6.964 24.541,7.105 24.833,7.363 C25.094,7.594 25.238,7.889 25.237,8.196 C25.237,8.196 25.238,10.743 25.238,10.743 C25.239,11.217 25.623,11.601 26.096,11.601 C26.096,11.601 33.814,11.601 33.814,11.601 C33.816,11.601 33.819,11.601 33.821,11.601 C34.294,11.601 34.678,11.217 34.678,10.743 C34.678,10.706 34.676,10.670 34.672,10.634 C34.672,10.634 34.671,4.439 34.671,4.439 C34.671,3.233 34.146,2.105 33.191,1.264 C32.268,0.450 31.046,0.002 29.753,0.002 C29.753,0.002 4.934,0.002 4.934,0.002 C2.221,0.002 0.014,1.992 0.014,4.439 C0.014,4.439 0.014,10.743 0.014,10.743 C0.014,11.217 0.399,11.601 0.872,11.601 ZM32.956,32.080 C32.956,32.553 32.571,32.938 32.098,32.938 C32.098,32.938 2.688,32.938 2.688,32.938 C2.215,32.938 1.830,32.553 1.830,32.080 C1.830,32.080 1.830,29.700 1.830,29.700 C1.830,28.915 2.191,27.641 2.588,26.996 C2.588,26.996 10.961,14.288 10.961,14.288 C11.300,13.738 12.198,13.236 12.845,13.236 C12.845,13.236 21.835,13.236 21.835,13.236 C22.482,13.236 23.380,13.738 23.736,14.315 C23.736,14.315 32.184,26.974 32.184,26.974 C32.595,27.641 32.956,28.915 32.956,29.700 C32.956,29.700 32.956,32.080 32.956,32.080 ZM25.180,13.389 C24.524,12.324 23.086,11.520 21.835,11.520 C21.835,11.520 12.845,11.520 12.845,11.520 C11.594,11.520 10.156,12.324 9.514,13.367 C9.514,13.367 1.142,26.074 1.142,26.074 C0.566,27.009 0.115,28.602 0.115,29.700 C0.115,29.700 0.115,32.080 0.115,32.080 C0.115,33.498 1.269,34.653 2.688,34.653 C2.688,34.653 32.098,34.653 32.098,34.653 C33.517,34.653 34.672,33.498 34.672,32.080 C34.672,32.080 34.672,29.700 34.672,29.700 C34.672,28.602 34.221,27.009 33.628,26.048 C33.628,26.048 25.180,13.389 25.180,13.389 ZM17.340,28.451 C14.545,28.451 12.271,26.178 12.271,23.383 C12.271,20.589 14.545,18.316 17.340,18.316 C20.135,18.316 22.409,20.589 22.409,23.383 C22.409,26.178 20.135,28.451 17.340,28.451 ZM17.340,16.600 C13.599,16.600 10.555,19.643 10.555,23.383 C10.555,27.124 13.599,30.167 17.340,30.167 C21.081,30.167 24.124,27.124 24.124,23.383 C24.124,19.643 21.081,16.600 17.340,16.600 Z"/>
</svg>
