<svg xmlns="http://www.w3.org/2000/svg" xmlns:xlink="http://www.w3.org/1999/xlink" preserveAspectRatio="xMidYMid" width="16" height="16" viewBox="0 0 16 16">
  <path d="M15.731,14.477 L12.718,11.465 C13.654,10.261 14.212,8.749 14.212,7.107 C14.212,3.182 11.028,-0.001 7.103,-0.001 C3.177,-0.001 -0.006,3.182 -0.006,7.107 C-0.006,11.032 3.177,14.216 7.103,14.216 C8.745,14.216 10.258,13.658 11.461,12.721 L14.474,15.734 C14.819,16.079 15.386,16.080 15.731,15.734 C16.075,15.391 16.075,14.821 15.731,14.477 L15.731,14.477 ZM7.103,1.776 C10.047,1.776 12.435,4.163 12.435,7.107 C12.435,10.051 10.047,12.439 7.103,12.439 C4.159,12.439 1.771,10.051 1.771,7.107 C1.771,4.163 4.159,1.776 7.103,1.776 L7.103,1.776 Z" />
</svg>
