<svg xmlns="http://www.w3.org/2000/svg" xmlns:xlink="http://www.w3.org/1999/xlink" preserveAspectRatio="xMidYMid" width="31" height="25" viewBox="0 0 31 25">
  <path d="M24.389,17.333 C24.389,17.333 24.736,17.129 24.736,17.129 C24.736,17.129 24.736,18.918 24.736,18.918 C24.736,18.918 24.389,19.121 24.389,19.121 C24.389,19.121 24.389,17.333 24.389,17.333 ZM23.798,19.468 C23.798,19.468 24.145,19.264 24.145,19.264 C24.145,19.264 24.145,17.476 24.145,17.476 C24.145,17.476 23.792,17.682 23.792,17.682 C23.792,17.682 23.798,19.468 23.798,19.468 ZM26.387,17.951 C26.387,17.951 26.740,17.744 26.740,17.744 C26.740,17.744 26.740,15.955 26.740,15.955 C26.740,15.955 26.387,16.162 26.387,16.162 C26.387,16.162 26.387,17.951 26.387,17.951 ZM31.000,7.231 C31.000,7.231 31.000,19.218 31.000,19.218 C31.000,19.218 21.132,25.000 21.132,25.000 C21.132,25.000 8.730,17.732 8.730,17.732 C8.730,17.732 8.730,5.745 8.730,5.745 C8.730,5.745 18.617,0.000 18.617,0.000 C18.617,0.000 31.000,7.231 31.000,7.231 ZM16.773,3.177 C16.773,3.177 26.425,8.911 26.425,8.911 C26.425,8.911 28.391,7.816 28.391,7.816 C28.391,7.816 18.615,2.107 18.615,2.107 C18.615,2.107 16.773,3.177 16.773,3.177 ZM20.167,13.439 C20.167,13.439 10.520,7.819 10.520,7.819 C10.520,7.819 10.520,16.684 10.520,16.684 C10.520,16.684 20.167,22.327 20.167,22.327 C20.167,22.327 20.167,13.439 20.167,13.439 ZM23.020,10.810 C23.020,10.810 13.491,5.084 13.491,5.084 C13.491,5.084 11.473,6.257 11.473,6.257 C11.473,6.257 21.103,11.878 21.103,11.878 C21.103,11.878 23.020,10.810 23.020,10.810 ZM29.193,9.453 C29.193,9.453 27.456,10.421 27.456,10.421 C27.456,10.421 27.456,13.670 27.456,13.670 C27.456,13.670 27.444,13.677 27.444,13.677 C27.444,13.677 27.444,13.690 27.444,13.690 C27.444,13.690 24.044,15.580 24.044,15.580 C24.044,15.580 24.044,15.568 24.044,15.568 C24.044,15.568 24.032,15.575 24.032,15.575 C24.032,15.575 24.032,12.330 24.032,12.330 C24.032,12.330 21.979,13.474 21.979,13.474 C21.979,13.474 21.979,22.396 21.979,22.396 C21.979,22.396 29.193,18.169 29.193,18.169 C29.193,18.169 29.193,9.453 29.193,9.453 C29.193,9.453 29.193,9.453 29.193,9.453 ZM25.220,18.634 C25.220,18.634 25.568,18.431 25.568,18.431 C25.568,18.431 25.568,16.642 25.568,16.642 C25.568,16.642 25.220,16.846 25.220,16.846 C25.220,16.846 25.220,18.634 25.220,18.634 ZM27.248,17.446 C27.248,17.446 27.540,17.275 27.540,17.275 C27.540,17.275 27.595,17.243 27.595,17.243 C27.595,17.243 27.595,15.454 27.595,15.454 C27.595,15.454 27.248,15.658 27.248,15.658 C27.248,15.658 27.248,17.446 27.248,17.446 ZM25.802,18.293 C25.802,18.293 26.149,18.090 26.149,18.090 C26.149,18.090 26.149,16.302 26.149,16.302 C26.149,16.302 25.802,16.505 25.802,16.505 C25.802,16.505 25.802,18.293 25.802,18.293 ZM1.231,7.834 C1.231,7.834 6.884,7.834 6.884,7.834 C6.884,7.834 6.884,9.651 6.884,9.651 C6.884,9.651 1.833,9.651 1.833,9.651 C1.833,9.651 1.231,7.834 1.231,7.834 ZM0.000,10.812 C0.000,10.812 6.884,10.812 6.884,10.812 C6.884,10.812 6.884,12.630 6.884,12.630 C6.884,12.630 0.602,12.630 0.602,12.630 C0.602,12.630 0.000,10.812 0.000,10.812 ZM3.635,15.608 C3.635,15.608 3.033,13.791 3.033,13.791 C3.033,13.791 6.884,13.791 6.884,13.791 C6.884,13.791 6.884,15.608 6.884,15.608 C6.884,15.608 3.635,15.608 3.635,15.608 Z" />
</svg>
