<svg version="1.1" xmlns="http://www.w3.org/2000/svg" xmlns:xlink="http://www.w3.org/1999/xlink" width="2610" height="1024" viewBox="0 0 2610 1024">
<path d="M1666.354 717.977c-1.471-1.766-3.237-2.943-5.002-3.825-2.060-0.883-3.825-1.471-5.885-1.471h-27.66v37.959h28.543c2.060 0 4.12-0.589 5.885-1.471s3.531-2.354 4.708-4.12c1.177-1.766 2.354-3.825 3.237-5.885 0.883-2.354 1.177-4.708 1.177-7.356s-0.294-5.297-1.177-7.651c-1.177-2.354-2.354-4.414-3.825-6.179z"></path>
<path d="M1338.262 575.559c20.892 0 31.485-28.837 31.485-86.216 0-57.674-10.887-86.51-32.368-86.51-20.892 0-31.485 28.837-31.485 86.51 0 57.379 10.593 86.216 32.368 86.216z"></path>
<path d="M2037.407 402.832c-20.892 0-31.485 28.837-31.485 86.51 0 57.379 10.887 86.216 32.368 86.216 20.892 0 31.485-28.837 31.485-86.216 0-57.674-10.593-86.51-32.368-86.51z"></path>
<path d="M2374.326 345.453v0c-13.83 0-25.011 11.77-25.011 26.189 0 14.713 11.182 26.189 25.011 26.189s24.717-11.476 24.717-26.189c0.294-14.418-10.887-26.189-24.717-26.189zM2381.977 389.885c-0.883-1.177-1.766-4.414-2.354-8.828-0.883-4.414-2.943-6.179-7.356-6.179h-3.825v15.007h-5.591v-34.722c2.943-0.294 5.591-0.883 9.71-0.883 5.297 0 8.828 1.177 10.887 2.648s3.237 3.825 3.237 7.062c0 4.414-2.943 7.356-6.768 8.533v0.294c2.943 0.589 5.002 3.237 5.885 8.533s1.766 7.356 2.354 8.533h-6.179z"></path>
<path d="M2372.561 358.694c-1.766 0-2.943 0-4.12 0.294v11.77h4.12c4.414 0 8.533-1.766 8.533-5.885-0.294-3.237-2.354-6.179-8.533-6.179z"></path>
<path d="M2098.023 0h-1586.023c-282.777 0-512 229.223-512 512s229.223 512 512 512h1586.023c282.777 0 512-229.223 512-512s-229.223-512-512-512zM1282.648 396.359c13.536-22.657 31.779-33.839 55.025-33.839s41.49 11.182 55.025 33.839c13.536 22.657 20.303 53.554 20.303 92.984s-6.768 70.326-20.303 92.69c-13.536 22.363-31.779 33.839-55.025 33.839s-41.49-11.182-55.025-33.839c-13.536-22.363-20.303-53.554-20.303-92.69 0-39.43 6.768-70.326 20.303-92.984zM512.294 944.552c-238.933 0-432.552-193.618-432.552-432.552s193.618-432.552 432.552-432.552 432.552 193.618 432.552 432.552-193.618 432.552-432.552 432.552zM1126.694 368.993l35.31 137.122h0.883l35.31-137.122h42.372l-72.092 245.407h-11.77l-72.386-245.407h42.372zM1177.306 792.717c-2.354 4.414-5.591 7.945-9.416 10.887-3.825 2.648-8.533 4.708-13.83 5.885s-10.887 1.766-16.478 1.766c-8.828 0-17.655-1.177-26.189-3.825s-16.184-6.474-23.246-11.182l10.005-19.715c0.883 0.883 2.648 2.354 5.297 3.825s5.591 3.237 9.122 4.708c3.531 1.471 7.356 2.943 11.77 4.12s8.828 1.766 13.241 1.766c12.653 0 18.832-4.12 18.832-12.064 0-2.648-0.589-4.708-2.060-6.474s-3.531-3.237-6.179-4.708c-2.648-1.177-5.885-2.648-9.71-3.531-3.825-1.177-7.945-2.354-12.653-3.531-5.591-1.471-10.593-3.237-14.713-5.002s-7.651-3.825-10.299-6.474c-2.648-2.354-4.708-5.297-6.179-8.533s-2.060-7.356-2.060-11.77c0-5.885 1.177-11.182 3.237-15.89s5.297-8.533 9.122-11.476 8.533-5.297 13.536-7.062c5.297-1.471 10.593-2.354 16.772-2.354 8.239 0 15.89 1.177 22.657 3.825 7.062 2.648 12.947 5.591 18.244 9.122l-10.005 18.538c-0.883-0.883-2.060-1.766-4.12-3.237-2.060-1.177-4.414-2.648-7.356-3.825s-6.179-2.354-9.416-3.237c-3.531-0.883-6.768-1.177-10.299-1.177-6.179 0-10.887 1.177-14.124 3.531-2.943 2.354-4.708 5.591-4.708 9.71 0 2.354 0.589 4.414 1.766 5.885s2.943 2.943 5.002 4.12c2.060 1.177 5.002 2.354 8.239 3.237s7.356 2.060 11.77 3.237c5.591 1.471 10.887 3.237 15.595 5.002s8.533 3.825 11.77 6.474c3.237 2.648 5.885 5.885 7.651 9.416 1.766 3.825 2.648 8.239 2.648 13.536 0.589 6.474-0.589 11.77-3.237 16.478zM1297.949 810.078h-81.508v-117.407h80.037v20.009h-57.085v28.248h49.434v18.538h-49.434v30.602h58.556v20.009zM1421.83 795.366c-3.237 3.237-7.062 6.179-11.476 8.533s-8.828 4.12-13.536 5.297-9.416 1.766-14.124 1.766c-8.239 0-15.595-1.766-22.363-5.297s-12.653-8.239-17.655-13.83c-5.002-5.591-8.828-12.064-11.476-19.421s-4.12-14.418-4.12-22.069c0-7.062 1.177-14.124 3.825-21.186s6.179-13.241 10.887-18.832 10.593-10.005 17.655-13.241c7.062-3.531 15.007-5.002 23.834-5.002 10.593 0 19.421 2.354 27.071 7.062s13.241 10.887 17.067 18.538l-17.655 12.064c-1.177-3.237-2.943-6.179-5.002-8.239-2.060-2.354-4.414-4.12-6.768-5.297s-5.002-2.354-7.651-2.943c-2.648-0.589-5.297-0.883-7.651-0.883-5.297 0-10.005 1.177-14.124 3.531s-7.356 5.297-10.299 9.122c-2.648 3.825-4.708 7.945-6.179 12.653s-2.060 9.416-2.060 13.83c0 5.297 0.883 10.299 2.354 15.007s3.825 9.122 6.768 12.653c2.943 3.531 6.474 6.474 10.593 8.828 4.12 2.060 8.533 3.237 13.241 3.237 2.648 0 5.002-0.294 7.651-0.883s5.297-1.766 7.651-3.237 4.708-3.237 6.768-5.591 3.825-5.002 5.002-8.239l18.538 10.593c-0.883 4.414-3.237 8.239-6.768 11.476zM1454.786 247.172h42.372v361.931h-42.372v-361.931zM1563.954 752.405c0 7.945-0.883 15.595-2.943 22.657s-5.002 13.241-9.122 18.538c-4.12 5.297-9.416 9.416-15.89 12.653-6.474 2.943-14.124 4.708-23.246 4.708-9.416 0-17.361-1.766-23.834-5.002s-11.77-7.651-15.89-12.947-7.062-11.476-8.828-18.538-2.648-14.418-2.648-22.069v-59.733h22.657v59.733c0 5.002 0.589 9.71 1.471 14.418s2.648 8.533 4.708 12.064c2.354 3.531 5.297 6.474 8.828 8.533s8.239 3.237 13.241 3.237c5.297 0 10.005-1.177 13.536-3.237s6.768-5.002 8.828-8.533c2.354-3.531 3.825-7.651 4.708-12.064 0.883-4.708 1.471-9.416 1.471-14.124v-59.733h22.657v59.439h0.294zM1559.834 594.685c-10.005-12.064-15.007-29.131-15.007-50.611v-175.080h42.372v171.844c0 22.657 7.651 34.133 22.657 34.133 8.828 0 16.478-4.12 22.952-12.064s10.005-13.536 10.005-16.184v-177.729h42.372v240.11h-42.372v-25.894h-1.177c-11.182 19.715-25.6 29.72-42.667 29.72-16.184 0-29.131-6.179-39.136-18.244zM1674.887 810.078l-24.717-39.43h-22.363v39.43h-22.657v-117.407h51.789c5.297 0 10.299 1.177 15.007 3.531s8.533 5.297 11.77 8.828c3.237 3.825 5.885 7.945 7.651 12.653s2.943 9.416 2.943 14.124c0 7.651-1.766 14.418-5.591 20.598s-8.828 10.593-15.301 13.536l27.66 44.138h-26.189zM1815.834 810.078h-81.508v-117.407h80.037v20.009h-57.085v28.248h49.434v18.538h-49.434v30.602h58.556v20.009zM1816.717 598.216c-10.887 11.77-24.717 17.655-40.901 17.655-15.595 0-31.191-6.474-47.375-19.715v-46.492c15.595 17.361 29.72 25.894 41.784 25.894 5.885 0 10.887-2.060 15.007-5.885s6.179-8.828 6.179-14.713c0-10.887-7.945-28.248-23.834-52.083s-25.894-41.49-30.014-52.671c-4.12-11.476-6.179-21.775-6.179-31.191 0-16.184 5.002-29.72 14.713-40.313s22.069-15.89 37.076-15.89c13.536 0 27.071 5.002 40.313 15.301v40.018c-13.83-11.182-25.894-17.067-36.193-17.067-11.182 0-17.067 5.885-17.067 17.949 0 10.005 8.239 26.483 24.717 49.729 16.478 22.952 27.071 40.607 31.485 52.377s6.768 22.952 6.768 32.956c0 17.655-5.297 32.368-16.478 44.138zM1879.687 278.952c4.708-4.708 10.593-7.062 17.067-7.062 6.768 0 12.359 2.354 17.067 7.062s7.062 10.593 7.062 17.361-2.354 12.359-7.062 17.067c-4.708 4.708-10.593 7.062-17.067 7.062-6.768 0-12.359-2.354-17.067-7.062s-7.062-10.593-7.062-17.067c0-6.768 2.354-12.653 7.062-17.361zM1875.862 368.993h42.372v240.11h-42.372v-240.11zM1990.915 792.717c-2.354 4.414-5.591 7.945-9.416 10.887-3.825 2.648-8.533 4.708-13.83 5.885s-10.887 1.766-16.478 1.766c-8.828 0-17.655-1.177-26.189-3.825s-16.184-6.474-23.246-11.182l10.005-19.715c0.883 0.883 2.648 2.354 5.297 3.825s5.591 3.237 9.122 4.708c3.531 1.471 7.356 2.943 11.77 4.12s8.828 1.766 13.241 1.766c12.653 0 18.832-4.12 18.832-12.064 0-2.648-0.589-4.708-2.060-6.474s-3.531-3.237-6.179-4.708c-2.648-1.177-5.885-2.648-9.71-3.531-3.825-1.177-7.945-2.354-12.653-3.531-5.591-1.471-10.593-3.237-14.713-5.002s-7.651-3.825-10.299-6.474c-2.648-2.354-4.708-5.297-6.179-8.533s-2.060-7.356-2.060-11.77c0-5.885 1.177-11.182 3.237-15.89s5.297-8.533 9.122-11.476 8.533-5.297 13.536-7.062c5.297-1.471 10.593-2.354 16.772-2.354 8.239 0 15.89 1.177 22.657 3.825 7.062 2.648 12.947 5.591 18.244 9.122l-10.005 18.538c-0.883-0.883-2.060-1.766-4.12-3.237-2.060-1.177-4.414-2.648-7.356-3.825s-6.179-2.354-9.416-3.237c-3.531-0.883-6.768-1.177-10.299-1.177-6.179 0-10.887 1.177-14.124 3.531-2.943 2.354-4.708 5.591-4.708 9.71 0 2.354 0.589 4.414 1.766 5.885s2.943 2.943 5.002 4.12 5.002 2.354 8.239 3.237c3.237 0.883 7.356 2.060 11.77 3.237 5.591 1.471 10.887 3.237 15.595 5.002s8.533 3.825 11.77 6.474c3.237 2.648 5.885 5.885 7.651 9.416 1.766 3.825 2.648 8.239 2.648 13.536 0.294 6.474-0.883 11.77-3.237 16.478zM2052.708 810.078h-22.657v-117.113h22.657v117.113zM2037.701 615.871c-23.246 0-41.49-11.182-55.025-33.839-13.536-22.363-20.303-53.554-20.303-92.69 0-39.43 6.768-70.326 20.303-92.984s31.779-33.839 55.025-33.839 41.49 11.182 55.025 33.839c13.536 22.657 20.303 53.554 20.303 92.984s-6.768 70.326-20.303 92.69-31.779 33.839-55.025 33.839zM2183.062 712.68h-37.37v97.398h-22.657v-97.398h-37.37v-20.009h97.692l-0.294 20.009zM2297.232 810.078h-81.214v-117.407h80.037v20.009h-57.085v28.248h49.434v18.538h-49.434v30.602h58.556l-0.294 20.009zM2298.115 609.103h-42.372v-171.844c0-23.246-7.651-34.722-22.657-34.722-8.533 0-16.184 4.414-22.952 13.241s-10.299 13.83-10.299 15.595v177.729h-42.372v-240.11h42.372v25.894h1.177c11.77-20.009 26.777-30.014 44.432-30.014 15.89 0 28.543 6.179 38.253 18.832s14.418 30.014 14.418 52.377v173.021zM2374.326 402.832c-17.067 0-30.602-13.536-30.602-31.191 0-17.361 13.83-30.897 30.602-30.897v0c17.067 0 30.602 13.83 30.602 30.897 0 17.655-13.536 31.191-30.602 31.191z"></path>
<path d="M296.607 446.97c-4.708 3.825-7.062 8.828-7.062 15.301 0 6.179 2.943 11.182 8.533 15.007s18.832 8.239 39.43 13.241 36.487 12.653 47.963 22.952 17.067 25.011 17.067 44.432-7.356 35.31-21.775 47.375c-14.713 12.064-33.839 18.244-57.674 18.244-34.428 0-65.324-12.653-92.984-38.253l28.837-35.31c23.54 20.598 45.021 30.897 65.030 30.897 8.828 0 15.89-2.060 20.892-5.885s7.651-9.122 7.651-15.595c0-6.474-2.648-11.77-7.945-15.595s-16.184-7.651-32.074-11.476c-25.306-5.885-43.844-13.83-55.32-23.54-11.77-9.71-17.655-24.717-17.655-45.315s7.356-36.487 22.069-47.669c14.713-11.182 33.251-16.772 55.614-16.772 14.418 0 29.131 2.354 43.549 7.356s27.071 12.064 37.959 21.186l-24.423 35.31c-18.832-14.418-38.253-21.48-58.262-21.48-8.533 0-15.007 1.766-19.421 5.591z"></path>
<path d="M494.639 446.97c-4.708 3.825-7.062 8.828-7.062 15.301 0 6.179 2.943 11.182 8.533 15.007s18.832 8.239 39.43 13.241 36.487 12.653 47.963 22.952c11.476 10.299 17.067 25.011 17.067 44.432s-7.356 35.31-21.775 47.375c-14.713 12.064-33.839 18.244-57.674 18.244-34.428 0-65.324-12.653-92.984-38.253l28.837-35.31c23.54 20.598 45.021 30.897 65.030 30.897 8.828 0 15.89-2.060 20.892-5.885s7.651-9.122 7.651-15.595c0-6.474-2.648-11.77-7.945-15.595s-16.184-7.651-32.074-11.476c-25.306-5.885-43.844-13.83-55.32-23.54-11.77-9.71-17.655-24.717-17.655-45.315s7.356-36.487 22.069-47.669c14.713-11.182 33.251-16.772 55.614-16.772 14.418 0 29.131 2.354 43.549 7.356s27.071 12.064 37.959 21.186l-24.423 35.31c-18.832-14.418-38.253-21.48-58.262-21.48-8.533 0-14.713 1.766-19.421 5.591z"></path>
<path d="M648.239 620.874v-217.159h48.552v173.903h92.395v43.255h-140.947z"></path>
</svg>
