<svg version="1.1" xmlns="http://www.w3.org/2000/svg" xmlns:xlink="http://www.w3.org/1999/xlink" viewBox="0 0 1000 500" style="enable-background:new 0 0 1000 500;" xml:space="preserve">
    <g>
        <g>
            <path d="M621.2,320.3c-0.5-0.6-1.1-1-1.7-1.3c-0.7-0.3-1.3-0.5-2-0.5h-9.4v12.9h9.7c0.7,0,1.4-0.2,2-0.5c0.6-0.3,1.2-0.8,1.6-1.4c0.4-0.6,0.8-1.3,1.1-2c0.3-0.8,0.4-1.6,0.4-2.5c0-0.9-0.1-1.8-0.4-2.6C622.1,321.6,621.7,320.9,621.2,320.3z" />
            <path d="M509.7,271.9c7.1,0,10.7-9.8,10.7-29.3c0-19.6-3.7-29.4-11-29.4c-7.1,0-10.7,9.8-10.7,29.4C498.7,262.1,502.3,271.9,509.7,271.9z" />
            <path d="M747.3,213.2c-7.1,0-10.7,9.8-10.7,29.4c0,19.5,3.7,29.3,11,29.3c7.1,0,10.7-9.8,10.7-29.3C758.3,223,754.7,213.2,747.3,213.2z" />
            <path d="M861.8,193.7L861.8,193.7c-4.7,0-8.5,4-8.5,8.9c0,5,3.8,8.9,8.5,8.9c4.7,0,8.4-3.9,8.4-8.9C870.3,197.7,866.5,193.7,861.8,193.7z M864.4,208.8c-0.3-0.4-0.6-1.5-0.8-3c-0.3-1.5-1-2.1-2.5-2.1h-1.3v5.1h-1.9V197c1-0.1,1.9-0.3,3.3-0.3c1.8,0,3,0.4,3.7,0.9c0.7,0.5,1.1,1.3,1.1,2.4c0,1.5-1,2.5-2.3,2.9v0.1c1,0.2,1.7,1.1,2,2.9c0.3,1.8,0.6,2.5,0.8,2.9H864.4z" />
            <path d="M861.2,198.2c-0.6,0-1,0-1.4,0.1v4h1.4c1.5,0,2.9-0.6,2.9-2C864,199.2,863.3,198.2,861.2,198.2z" />
            <path d="M767.9,76.3h-539c-96.1,0-174,77.9-174,174s77.9,174,174,174h539c96.1,0,174-77.9,174-174S864,76.3,767.9,76.3z M490.8,211c4.6-7.7,10.8-11.5,18.7-11.5c7.9,0,14.1,3.8,18.7,11.5c4.6,7.7,6.9,18.2,6.9,31.6c0,13.4-2.3,23.9-6.9,31.5c-4.6,7.6-10.8,11.5-18.7,11.5c-7.9,0-14.1-3.8-18.7-11.5c-4.6-7.6-6.9-18.2-6.9-31.5C483.9,229.2,486.2,218.7,490.8,211z M229,397.3c-81.2,0-147-65.8-147-147c0-81.2,65.8-147,147-147s147,65.8,147,147C376,331.5,310.2,397.3,229,397.3z M437.8,201.7l12,46.6l0.3,0l12-46.6h14.4l-24.5,83.4h-4l-24.6-83.4H437.8z M455,345.7c-0.8,1.5-1.9,2.7-3.2,3.7c-1.3,0.9-2.9,1.6-4.7,2c-1.8,0.4-3.7,0.6-5.6,0.6c-3,0-6-0.4-8.9-1.3c-2.9-0.9-5.5-2.2-7.9-3.8l3.4-6.7c0.3,0.3,0.9,0.8,1.8,1.3c0.9,0.5,1.9,1.1,3.1,1.6c1.2,0.5,2.5,1,4,1.4c1.5,0.4,3,0.6,4.5,0.6c4.3,0,6.4-1.4,6.4-4.1c0-0.9-0.2-1.6-0.7-2.2c-0.5-0.6-1.2-1.1-2.1-1.6c-0.9-0.4-2-0.9-3.3-1.2c-1.3-0.4-2.7-0.8-4.3-1.2c-1.9-0.5-3.6-1.1-5-1.7c-1.4-0.6-2.6-1.3-3.5-2.2c-0.9-0.8-1.6-1.8-2.1-2.9c-0.5-1.1-0.7-2.5-0.7-4c0-2,0.4-3.8,1.1-5.4c0.7-1.6,1.8-2.9,3.1-3.9c1.3-1,2.9-1.8,4.6-2.4c1.8-0.5,3.6-0.8,5.7-0.8c2.8,0,5.4,0.4,7.7,1.3c2.4,0.9,4.4,1.9,6.2,3.1l-3.4,6.3c-0.3-0.3-0.7-0.6-1.4-1.1c-0.7-0.4-1.5-0.9-2.5-1.3c-1-0.4-2.1-0.8-3.2-1.1c-1.2-0.3-2.3-0.4-3.5-0.4c-2.1,0-3.7,0.4-4.8,1.2c-1,0.8-1.6,1.9-1.6,3.3c0,0.8,0.2,1.5,0.6,2c0.4,0.5,1,1,1.7,1.4c0.7,0.4,1.7,0.8,2.8,1.1c1.1,0.3,2.5,0.7,4,1.1c1.9,0.5,3.7,1.1,5.3,1.7c1.6,0.6,2.9,1.3,4,2.2c1.1,0.9,2,2,2.6,3.2c0.6,1.3,0.9,2.8,0.9,4.6C456.3,342.3,455.9,344.1,455,345.7z M496,351.6h-27.7v-39.9h27.2v6.8h-19.4v9.6h16.8v6.3h-16.8v10.4H496V351.6z M538.1,346.6c-1.1,1.1-2.4,2.1-3.9,2.9c-1.5,0.8-3,1.4-4.6,1.8c-1.6,0.4-3.2,0.6-4.8,0.6c-2.8,0-5.3-0.6-7.6-1.8c-2.3-1.2-4.3-2.8-6-4.7c-1.7-1.9-3-4.1-3.9-6.6c-0.9-2.5-1.4-4.9-1.4-7.5c0-2.4,0.4-4.8,1.3-7.2c0.9-2.4,2.1-4.5,3.7-6.4c1.6-1.9,3.6-3.4,6-4.5c2.4-1.2,5.1-1.7,8.1-1.7c3.6,0,6.6,0.8,9.2,2.4c2.6,1.6,4.5,3.7,5.8,6.3l-6,4.1c-0.4-1.1-1-2.1-1.7-2.8c-0.7-0.8-1.5-1.4-2.3-1.8c-0.8-0.4-1.7-0.8-2.6-1c-0.9-0.2-1.8-0.3-2.6-0.3c-1.8,0-3.4,0.4-4.8,1.2c-1.4,0.8-2.5,1.8-3.5,3.1c-0.9,1.3-1.6,2.7-2.1,4.3c-0.5,1.6-0.7,3.2-0.7,4.7c0,1.8,0.3,3.5,0.8,5.1c0.5,1.6,1.3,3.1,2.3,4.3c1,1.2,2.2,2.2,3.6,3c1.4,0.7,2.9,1.1,4.5,1.1c0.9,0,1.7-0.1,2.6-0.3c0.9-0.2,1.8-0.6,2.6-1.1s1.6-1.1,2.3-1.9c0.7-0.8,1.3-1.7,1.7-2.8l6.3,3.6C540.1,344.2,539.3,345.5,538.1,346.6z M549.3,160.3h14.4v123h-14.4V160.3z M586.4,332c0,2.7-0.3,5.3-1,7.7c-0.7,2.4-1.7,4.5-3.1,6.3c-1.4,1.8-3.2,3.2-5.4,4.3c-2.2,1-4.8,1.6-7.9,1.6c-3.2,0-5.9-0.6-8.1-1.7c-2.2-1.1-4-2.6-5.4-4.4c-1.4-1.8-2.4-3.9-3-6.3c-0.6-2.4-0.9-4.9-0.9-7.5v-20.3h7.7V332c0,1.7,0.2,3.3,0.5,4.9c0.3,1.6,0.9,2.9,1.6,4.1c0.8,1.2,1.8,2.2,3,2.9c1.2,0.7,2.8,1.1,4.5,1.1c1.8,0,3.4-0.4,4.6-1.1s2.3-1.7,3-2.9c0.8-1.2,1.3-2.6,1.6-4.1c0.3-1.6,0.5-3.2,0.5-4.8v-20.3h7.7V332z M585,278.4c-3.4-4.1-5.1-9.9-5.1-17.2v-59.5h14.4v58.4c0,7.7,2.6,11.6,7.7,11.6c3,0,5.6-1.4,7.8-4.1c2.2-2.7,3.4-4.6,3.4-5.5v-60.4h14.4v81.6h-14.4v-8.8h-0.4c-3.8,6.7-8.7,10.1-14.5,10.1C592.8,284.6,588.4,282.5,585,278.4z M624.1,351.6l-8.4-13.4h-7.6v13.4h-7.7v-39.9H618c1.8,0,3.5,0.4,5.1,1.2c1.6,0.8,2.9,1.8,4,3c1.1,1.3,2,2.7,2.6,4.3c0.6,1.6,1,3.2,1,4.8c0,2.6-0.6,4.9-1.9,7c-1.3,2.1-3,3.6-5.2,4.6l9.4,15H624.1z M672,351.6h-27.7v-39.9h27.2v6.8h-19.4v9.6h16.8v6.3h-16.8v10.4H672V351.6z M672.3,279.6c-3.7,4-8.4,6-13.9,6c-5.3,0-10.6-2.2-16.1-6.7v-15.8c5.3,5.9,10.1,8.8,14.2,8.8c2,0,3.7-0.7,5.1-2c1.4-1.3,2.1-3,2.1-5c0-3.7-2.7-9.6-8.1-17.7c-5.4-8.1-8.8-14.1-10.2-17.9c-1.4-3.9-2.1-7.4-2.1-10.6c0-5.5,1.7-10.1,5-13.7c3.3-3.6,7.5-5.4,12.6-5.4c4.6,0,9.2,1.7,13.7,5.2v13.6c-4.7-3.8-8.8-5.8-12.3-5.8c-3.8,0-5.8,2-5.8,6.1c0,3.4,2.8,9,8.4,16.9c5.6,7.8,9.2,13.8,10.7,17.8c1.5,4,2.3,7.8,2.3,11.2C677.9,270.6,676.1,275.6,672.3,279.6z M693.7,171.1c1.6-1.6,3.6-2.4,5.8-2.4c2.3,0,4.2,0.8,5.8,2.4c1.6,1.6,2.4,3.6,2.4,5.9c0,2.3-0.8,4.2-2.4,5.8c-1.6,1.6-3.6,2.4-5.8,2.4c-2.3,0-4.2-0.8-5.8-2.4c-1.6-1.6-2.4-3.6-2.4-5.8C691.3,174.7,692.1,172.7,693.7,171.1z M692.4,201.7h14.4v81.6h-14.4V201.7z M731.5,345.7c-0.8,1.5-1.9,2.7-3.2,3.7c-1.3,0.9-2.9,1.6-4.7,2c-1.8,0.4-3.7,0.6-5.6,0.6c-3,0-6-0.4-8.9-1.3c-2.9-0.9-5.5-2.2-7.9-3.8l3.4-6.7c0.3,0.3,0.9,0.8,1.8,1.3c0.9,0.5,1.9,1.1,3.1,1.6c1.2,0.5,2.5,1,4,1.4c1.5,0.4,3,0.6,4.5,0.6c4.3,0,6.4-1.4,6.4-4.1c0-0.9-0.2-1.6-0.7-2.2c-0.5-0.6-1.2-1.1-2.1-1.6c-0.9-0.4-2-0.9-3.3-1.2c-1.3-0.4-2.7-0.8-4.3-1.2c-1.9-0.5-3.6-1.1-5-1.7c-1.4-0.6-2.6-1.3-3.5-2.2c-0.9-0.8-1.6-1.8-2.1-2.9c-0.5-1.1-0.7-2.5-0.7-4c0-2,0.4-3.8,1.1-5.4c0.7-1.6,1.8-2.9,3.1-3.9c1.3-1,2.9-1.8,4.6-2.4c1.8-0.5,3.6-0.8,5.7-0.8c2.8,0,5.4,0.4,7.7,1.3c2.4,0.9,4.4,1.9,6.2,3.1l-3.4,6.3c-0.3-0.3-0.7-0.6-1.4-1.1c-0.7-0.4-1.5-0.9-2.5-1.3c-1-0.4-2.1-0.8-3.2-1.1c-1.2-0.3-2.3-0.4-3.5-0.4c-2.1,0-3.7,0.4-4.8,1.2c-1,0.8-1.6,1.9-1.6,3.3c0,0.8,0.2,1.5,0.6,2c0.4,0.5,1,1,1.7,1.4c0.7,0.4,1.7,0.8,2.8,1.1c1.1,0.3,2.5,0.7,4,1.1c1.9,0.5,3.7,1.1,5.3,1.7c1.6,0.6,2.9,1.3,4,2.2c1.1,0.9,2,2,2.6,3.2c0.6,1.3,0.9,2.8,0.9,4.6C732.7,342.3,732.3,344.1,731.5,345.7z M752.5,351.6h-7.7v-39.8h7.7V351.6z M747.4,285.6c-7.9,0-14.1-3.8-18.7-11.5c-4.6-7.6-6.9-18.2-6.9-31.5c0-13.4,2.3-23.9,6.9-31.6c4.6-7.7,10.8-11.5,18.7-11.5c7.9,0,14.1,3.8,18.7,11.5c4.6,7.7,6.9,18.2,6.9,31.6c0,13.4-2.3,23.9-6.9,31.5C761.5,281.7,755.3,285.6,747.4,285.6z M796.8,318.5h-12.7v33.1h-7.7v-33.1h-12.7v-6.8h33.2V318.5z M835.6,351.6H808v-39.9h27.2v6.8h-19.4v9.6h16.8v6.3h-16.8v10.4h19.9V351.6z M835.9,283.3h-14.4v-58.4c0-7.9-2.6-11.8-7.7-11.8c-2.9,0-5.5,1.5-7.8,4.5c-2.3,3-3.5,4.7-3.5,5.3v60.4h-14.4v-81.6h14.4v8.8h0.4c4-6.8,9.1-10.2,15.1-10.2c5.4,0,9.7,2.1,13,6.4c3.3,4.3,4.9,10.2,4.9,17.8V283.3z M861.8,213.2c-5.8,0-10.4-4.6-10.4-10.6c0-5.9,4.7-10.5,10.4-10.5h0c5.8,0,10.4,4.7,10.4,10.5C872.2,208.6,867.6,213.2,861.8,213.2z" />
        </g>
        <g>
            <path d="M155.7,228.2c-1.6,1.3-2.4,3-2.4,5.2c0,2.1,1,3.8,2.9,5.1c1.9,1.3,6.4,2.8,13.4,4.5c7,1.7,12.4,4.3,16.3,7.8c3.9,3.4,5.8,8.5,5.8,15.1c0,6.6-2.5,12-7.4,16.1c-5,4.1-11.5,6.2-19.6,6.2c-11.7,0-22.2-4.3-31.6-13l9.8-12c8,7,15.3,10.5,22.1,10.5c3,0,5.4-0.7,7.1-2c1.7-1.3,2.6-3.1,2.6-5.3c0-2.2-0.9-4-2.7-5.3c-1.8-1.3-5.5-2.6-10.9-3.9c-8.6-2-14.9-4.7-18.8-8c-4-3.3-6-8.4-6-15.4c0-7,2.5-12.4,7.5-16.2c5-3.8,11.3-5.7,18.9-5.7c4.9,0,9.9,0.8,14.8,2.5c4.9,1.7,9.2,4.1,12.9,7.2l-8.3,12c-6.4-4.9-13-7.3-19.8-7.3C159.4,226.3,157.2,226.9,155.7,228.2z" />
            <path d="M223,228.2c-1.6,1.3-2.4,3-2.4,5.2c0,2.1,1,3.8,2.9,5.1c1.9,1.3,6.4,2.8,13.4,4.5c7,1.7,12.4,4.3,16.3,7.8c3.9,3.4,5.8,8.5,5.8,15.1c0,6.6-2.5,12-7.4,16.1c-5,4.1-11.5,6.2-19.6,6.2c-11.7,0-22.2-4.3-31.6-13l9.8-12c8,7,15.3,10.5,22.1,10.5c3,0,5.4-0.7,7.1-2c1.7-1.3,2.6-3.1,2.6-5.3c0-2.2-0.9-4-2.7-5.3c-1.8-1.3-5.5-2.6-10.9-3.9c-8.6-2-14.9-4.7-18.8-8c-4-3.3-6-8.4-6-15.4c0-7,2.5-12.4,7.5-16.2c5-3.8,11.3-5.7,18.9-5.7c4.9,0,9.9,0.8,14.8,2.5c4.9,1.7,9.2,4.1,12.9,7.2l-8.3,12c-6.4-4.9-13-7.3-19.8-7.3C226.7,226.3,224.6,226.9,223,228.2z" />
            <path d="M275.2,287.3v-73.8h16.5v59.1h31.4v14.7H275.2z" />
        </g>
    </g>
</svg>
