<svg xmlns="http://www.w3.org/2000/svg" xmlns:xlink="http://www.w3.org/1999/xlink" preserveAspectRatio="xMidYMid" width="37" height="35" viewBox="0 0 37 35">
  <path d="M34.289,14.159 C34.063,14.310 26.735,19.635 25.269,20.701 C25.269,20.701 24.739,21.086 24.739,21.086 C24.739,21.086 24.942,21.705 24.942,21.705 C26.159,25.420 28.179,31.585 28.379,32.164 C28.379,32.164 28.378,32.164 28.378,32.164 C28.404,32.239 28.417,32.307 28.417,32.362 C28.417,32.630 28.193,32.857 27.927,32.857 C27.827,32.857 27.732,32.826 27.655,32.774 C27.495,32.661 21.717,28.476 18.685,26.279 C18.685,26.279 18.153,25.894 18.153,25.894 C18.153,25.894 8.663,32.765 8.663,32.765 C8.574,32.826 8.478,32.857 8.378,32.857 C8.109,32.857 7.889,32.635 7.889,32.362 C7.889,32.307 7.903,32.237 7.928,32.161 C7.928,32.161 7.928,32.161 7.928,32.161 C8.141,31.542 10.151,25.407 11.363,21.705 C11.363,21.705 11.566,21.086 11.566,21.086 C11.566,21.086 11.037,20.701 11.037,20.701 C9.571,19.636 2.243,14.311 2.031,14.169 C1.899,14.077 1.820,13.925 1.820,13.762 C1.820,13.476 2.042,13.225 2.296,13.225 C2.296,13.225 14.084,13.225 14.084,13.225 C14.084,13.225 17.686,2.155 17.686,2.155 C17.737,1.975 17.901,1.795 18.153,1.795 C18.405,1.795 18.568,1.975 18.619,2.154 C18.619,2.154 22.237,13.225 22.237,13.225 C22.237,13.225 34.025,13.225 34.025,13.225 C34.275,13.225 34.486,13.468 34.486,13.755 C34.486,13.922 34.407,14.077 34.289,14.159 ZM34.025,11.427 C34.025,11.427 23.549,11.427 23.549,11.427 C23.549,11.427 20.353,1.648 20.353,1.648 C20.069,0.676 19.167,-0.002 18.153,-0.002 C17.132,-0.002 16.225,0.684 15.957,1.635 C15.957,1.635 12.770,11.427 12.770,11.427 C12.770,11.427 2.296,11.427 2.296,11.427 C1.037,11.427 0.013,12.475 0.013,13.762 C0.013,14.510 0.380,15.213 1.003,15.647 C1.226,15.800 5.986,19.257 9.442,21.768 C8.128,25.782 6.316,31.306 6.231,31.546 C6.231,31.546 6.214,31.593 6.214,31.593 C6.127,31.854 6.082,32.113 6.082,32.362 C6.082,33.626 7.112,34.655 8.378,34.655 C8.844,34.655 9.297,34.514 9.707,34.232 C9.707,34.232 18.153,28.117 18.153,28.117 C20.073,29.508 26.431,34.114 26.617,34.245 C27.007,34.513 27.460,34.655 27.927,34.655 C29.194,34.655 30.224,33.626 30.224,32.362 C30.224,32.111 30.179,31.851 30.083,31.568 C29.992,31.314 28.179,25.785 26.863,21.768 C30.318,19.258 35.077,15.802 35.312,15.641 C35.926,15.213 36.293,14.507 36.293,13.755 C36.293,12.472 35.275,11.427 34.025,11.427 Z" id="path-1"/>
</svg>
