<svg version="1.1" xmlns="http://www.w3.org/2000/svg" xmlns:xlink="http://www.w3.org/1999/xlink" viewBox="3.9 35.7 90 28.6" enable-background="new 3.9 35.7 90 28.6" xml:space="preserve">
<path d="M35.6,63.8h7.3l4.6-27.5h-7.3L35.6,63.8z M62.1,47.3C59.6,46,58,45.2,58,43.9c0-1.1,1.3-2.4,4.2-2.4
	c2.4,0,4.1,0.5,5.5,1.1l0.7,0.3l1-6c-1.4-0.6-3.7-1.2-6.5-1.2c-7.2,0-12.3,3.7-12.3,9.1c0,4,3.6,6.2,6.4,7.5
	c2.8,1.3,3.8,2.2,3.8,3.4c0,1.8-2.3,2.7-4.4,2.7c-2.9,0-4.5-0.4-6.9-1.4l-0.9-0.4l-1,6.2c1.7,0.8,4.8,1.4,8.1,1.5
	c7.7,0,12.6-3.7,12.7-9.4C68.2,51.7,66.3,49.3,62.1,47.3z M88,36.3h-5.6c-1.7,0-3.1,0.5-3.8,2.3L67.7,63.8h7.7
	c0,0,1.2-3.4,1.5-4.1c0.8,0,8.3,0,9.3,0c0.2,1,0.9,4.1,0.9,4.1h6.8L88,36.3z M79,54c0.6-1.6,2.9-7.7,2.9-7.7c0,0.1,0.6-1.6,1-2.6l0.5,2.4c0,0,1.4,6.6,1.7,7.9C85.1,54,79,54,79,54z M29.5,36.3l-7.1,18.8l-0.8-3.8L19,38.6c-0.4-1.7-1.7-2.3-3.3-2.3H4l-0.1,0.6c2.9,0.7,5.4,1.7,7.7,3L18,63.8h7.7l11.5-27.5H29.5z"/>
</svg>
