<?xml version="1.0" encoding="utf-8"?>
<!-- Generated by IcoMoon.io -->
<!DOCTYPE svg PUBLIC "-//W3C//DTD SVG 1.1//EN" "http://www.w3.org/Graphics/SVG/1.1/DTD/svg11.dtd">
<svg version="1.1" xmlns="http://www.w3.org/2000/svg" xmlns:xlink="http://www.w3.org/1999/xlink" width="34" height="34" viewBox="0 0 34 34">
<path fill="#337ab7" d="M17 0c-9.389 0-17 7.611-17 17s7.611 17 17 17c9.389 0 17-7.611 17-17s-7.611-17-17-17zM27.448 20.089c0 0-7.359 0-7.359 0s0 7.359 0 7.359c0 0-5.683 0-5.683 0s0-7.359 0-7.359c0 0-7.359 0-7.359 0s0-5.683 0-5.683c0 0 7.359 0 7.359 0s0-7.359 0-7.359c0 0 5.683 0 5.683 0s0 7.359 0 7.359c0 0 7.359 0 7.359 0s0 5.683 0 5.683z"></path>
</svg>
