<?xml version="1.0" encoding="utf-8"?>
<!-- Generated by IcoMoon.io -->
<!DOCTYPE svg PUBLIC "-//W3C//DTD SVG 1.1//EN" "http://www.w3.org/Graphics/SVG/1.1/DTD/svg11.dtd">
<svg version="1.1" xmlns="http://www.w3.org/2000/svg" xmlns:xlink="http://www.w3.org/1999/xlink" width="34" height="34" viewBox="0 0 34 34">
<path fill="#337ab7" d="M17 0c-9.389 0-17 7.611-17 17s7.611 17 17 17c9.389 0 17-7.611 17-17s-7.611-17-17-17zM9.47 24.813c0 0 3.078-3.126 3.078-3.126 4.143 4.082 11.24 1.145 11.204-4.726-0.020-3.636-2.985-6.567-6.621-6.544-3.624 0.020-6.551 2.983-6.544 6.607 0 0 2.362 0 2.362 0s-4.599 4.626-4.599 4.626c0 0-4.647-4.626-4.647-4.626s2.496 0 2.496 0c-0.020-6.047 4.857-10.962 10.907-10.996 6.059-0.036 11 4.848 11.036 10.907 0.057 9.799-11.784 14.668-18.673 7.877z"></path>
</svg>
